<svg xmlns="http://www.w3.org/2000/svg" viewBox="0 0 313.06 273.62"><title>Recurso 1</title><g id="Capa_2" data-name="Capa 2"><g id="Capa_1-2" data-name="Capa 1"><path d="M0,83.21C1,78.12,1.67,73,3,68A90.25,90.25,0,0,1,94.63.16c23.1,1.14,43,10,59.62,26.14.71.7,1.44,1.38,1.92,1.83,5.92-4.62,11.4-9.53,17.46-13.54,54-35.78,128.85-2.17,138.42,61.93,3.46,23.2-2.21,44.43-12.8,64.75-11.9,22.84-28.31,42.26-46.45,60.28-26.64,26.47-56.37,49-87.94,69.29-5.58,3.58-10.35,3.78-16,.16C111.63,247.3,77,220.47,47.24,187.76c-15.85-17.42-29.69-36.24-38.82-58.17a105,105,0,0,1-7.9-30A19.33,19.33,0,0,0,0,97.27ZM293.65,88.5c-.28-2.31-.6-6.68-1.33-11C286,40.42,248.67,14,211.66,20.41c-19.36,3.36-35,12.82-46.61,28.72-2.17,3-4.9,4.82-8.72,4.76-4.11-.07-6.62-2.52-8.91-5.6a70.9,70.9,0,0,0-98.78-15c-25.84,19-35.41,51.22-24.48,83C31,136.26,43,153.23,56.67,169c28.4,32.63,62.22,58.87,98.14,82.59,1.5,1,2.43.73,3.75-.13C183.9,234.81,208,216.62,230.27,196c18.66-17.33,35.82-35.95,48.7-58.11C287.48,123.24,293.35,107.77,293.65,88.5Z"/></g></g></svg>